<?xml version="1.0" standalone="no"?>
<!DOCTYPE svg PUBLIC "-//W3C//DTD SVG 20010904//EN"
 "http://www.w3.org/TR/2001/REC-SVG-20010904/DTD/svg10.dtd">
<svg version="1.0" xmlns="http://www.w3.org/2000/svg"
 width="256.000000pt" height="256.000000pt" viewBox="0 0 256.000000 256.000000"
 preserveAspectRatio="xMidYMid meet">

<g transform="translate(0.000000,256.000000) scale(0.100000,-0.100000)"
fill="#000000" stroke="none">
<path d="M2133 2460 c-92 -100 -201 -147 -519 -225 -219 -53 -341 -91 -464
-144 -340 -147 -602 -472 -626 -778 -16 -209 91 -428 284 -582 68 -54 168
-114 223 -132 19 -7 38 -15 42 -19 12 -10 -135 -94 -235 -135 -107 -43 -181
-62 -315 -80 -135 -19 -138 -20 -151 -51 -17 -37 -15 -68 9 -98 24 -31 62 -34
166 -12 175 38 386 133 542 244 l94 68 34 -67 c78 -155 238 -239 458 -240 117
0 187 16 289 67 96 48 149 89 235 179 375 395 411 1082 100 1899 -67 177 -88
190 -166 106z m77 -167 c172 -455 233 -874 175 -1207 -28 -161 -97 -337 -176
-452 -85 -124 -220 -236 -351 -292 -57 -24 -75 -26 -183 -26 -100 0 -129 4
-175 22 -104 41 -182 117 -214 209 l-13 37 120 115 c248 240 451 538 607 894
72 165 75 195 24 211 -34 10 -59 -20 -104 -129 -138 -332 -340 -636 -581 -876
l-136 -137 -49 9 c-152 28 -367 190 -454 342 -69 119 -90 272 -55 394 50 173
193 360 367 483 146 103 285 157 613 240 127 32 259 68 295 80 80 27 212 94
236 121 9 10 21 19 25 19 4 0 17 -26 29 -57z"/>
</g>
</svg>
